<svg id="visual" viewBox="0 0 1920 1080" width="1920" height="1080" xmlns="http://www.w3.org/2000/svg" xmlns:xlink="http://www.w3.org/1999/xlink" version="1.1"><rect x="0" y="0" width="1920" height="1080" fill="#00182c"></rect><path d="M0 762L45.7 755.5C91.3 749 182.7 736 274.2 729.3C365.7 722.7 457.3 722.3 548.8 710.2C640.3 698 731.7 674 823 677C914.3 680 1005.7 710 1097 718C1188.3 726 1279.7 712 1371.2 719C1462.7 726 1554.3 754 1645.8 744.2C1737.3 734.3 1828.7 686.7 1874.3 662.8L1920 639L1920 1081L1874.3 1081C1828.7 1081 1737.3 1081 1645.8 1081C1554.3 1081 1462.7 1081 1371.2 1081C1279.7 1081 1188.3 1081 1097 1081C1005.7 1081 914.3 1081 823 1081C731.7 1081 640.3 1081 548.8 1081C457.3 1081 365.7 1081 274.2 1081C182.7 1081 91.3 1081 45.7 1081L0 1081Z" fill="#012948"></path><path d="M0 709L45.7 719.7C91.3 730.3 182.7 751.7 274.2 769.8C365.7 788 457.3 803 548.8 801C640.3 799 731.7 780 823 773.8C914.3 767.7 1005.7 774.3 1097 786.8C1188.3 799.3 1279.7 817.7 1371.2 812.3C1462.7 807 1554.3 778 1645.8 780.8C1737.3 783.7 1828.7 818.3 1874.3 835.7L1920 853L1920 1081L1874.3 1081C1828.7 1081 1737.3 1081 1645.8 1081C1554.3 1081 1462.7 1081 1371.2 1081C1279.7 1081 1188.3 1081 1097 1081C1005.7 1081 914.3 1081 823 1081C731.7 1081 640.3 1081 548.8 1081C457.3 1081 365.7 1081 274.2 1081C182.7 1081 91.3 1081 45.7 1081L0 1081Z" fill="#003055"></path><path d="M0 870L45.7 875.3C91.3 880.7 182.7 891.3 274.2 880.7C365.7 870 457.3 838 548.8 833.7C640.3 829.3 731.7 852.7 823 869.2C914.3 885.7 1005.7 895.3 1097 882.2C1188.3 869 1279.7 833 1371.2 819.2C1462.7 805.3 1554.3 813.7 1645.8 826.8C1737.3 840 1828.7 858 1874.3 867L1920 876L1920 1081L1874.3 1081C1828.7 1081 1737.3 1081 1645.8 1081C1554.3 1081 1462.7 1081 1371.2 1081C1279.7 1081 1188.3 1081 1097 1081C1005.7 1081 914.3 1081 823 1081C731.7 1081 640.3 1081 548.8 1081C457.3 1081 365.7 1081 274.2 1081C182.7 1081 91.3 1081 45.7 1081L0 1081Z" fill="#003662"></path><path d="M0 927L45.7 930.7C91.3 934.3 182.7 941.7 274.2 935.5C365.7 929.3 457.3 909.7 548.8 897.3C640.3 885 731.7 880 823 885.7C914.3 891.3 1005.7 907.7 1097 907.8C1188.3 908 1279.7 892 1371.2 897.7C1462.7 903.3 1554.3 930.7 1645.8 940.7C1737.3 950.7 1828.7 943.3 1874.3 939.7L1920 936L1920 1081L1874.3 1081C1828.7 1081 1737.3 1081 1645.8 1081C1554.3 1081 1462.7 1081 1371.2 1081C1279.7 1081 1188.3 1081 1097 1081C1005.7 1081 914.3 1081 823 1081C731.7 1081 640.3 1081 548.8 1081C457.3 1081 365.7 1081 274.2 1081C182.7 1081 91.3 1081 45.7 1081L0 1081Z" fill="#0f487a"></path><path d="M0 946L45.7 954.2C91.3 962.3 182.7 978.7 274.2 989C365.7 999.3 457.3 1003.7 548.8 999.3C640.3 995 731.7 982 823 973.3C914.3 964.7 1005.7 960.3 1097 965.7C1188.3 971 1279.7 986 1371.2 998C1462.7 1010 1554.3 1019 1645.8 1023.3C1737.3 1027.7 1828.7 1027.3 1874.3 1027.2L1920 1027L1920 1081L1874.3 1081C1828.7 1081 1737.3 1081 1645.8 1081C1554.3 1081 1462.7 1081 1371.2 1081C1279.7 1081 1188.3 1081 1097 1081C1005.7 1081 914.3 1081 823 1081C731.7 1081 640.3 1081 548.8 1081C457.3 1081 365.7 1081 274.2 1081C182.7 1081 91.3 1081 45.7 1081L0 1081Z" fill="#1c5b93"></path></svg>